<svg width="76" height="100" viewBox="0 0 76 100" fill="none" xmlns="http://www.w3.org/2000/svg">
<path d="M33.7999 7.16497C33.923 7.37086 33.7999 7.16497 35.933 9.80037C38.066 12.4358 35.933 26.6422 35.933 26.6422C35.933 26.6422 36.9585 27.1981 37.5532 27.1981C38.1275 27.1981 39.1941 26.6422 39.1941 26.6422C39.1941 26.6422 37.6148 11.3857 39.1941 9.80037C40.6298 8.35913 41.1631 7.41204 41.2451 7.22674C41.7784 6.48553 42.1065 5.55904 42.1065 4.57076C42.1065 2.0589 40.076 0 37.5532 0C35.0305 0 33 2.03831 33 4.57076C33 5.53845 33.3077 6.44436 33.7999 7.16497Z" fill="url(#paint0_linear_10009_15442)"/>
<path d="M68.4014 49.4333H48.5065C47.399 49.4333 46.353 49.001 45.5531 48.2392C44.9173 47.6215 44.2199 46.9215 43.4816 46.1803C41.9228 44.5949 41.7997 42.0625 43.1944 40.3124C47.2554 34.4857 51.337 40.683 51.337 40.683L51.3575 40.6418C52.5881 42.1654 54.4545 43.1537 56.567 43.1537C60.505 43.1537 63.6431 39.7771 63.3149 35.7622C63.0072 32.1798 59.7871 29.5444 56.2184 29.565C54.4135 29.5855 52.6906 29.7091 51.0498 29.9767C47.9733 29.7914 44.5071 29.4208 41.1844 28.7208C45.1224 27.0325 48.322 24.5824 49.6961 21.0411C50.4345 21.5558 51.337 21.8647 52.3009 21.8647C54.8032 21.8647 56.8542 19.8264 56.8542 17.2939C56.8542 14.7615 54.8237 12.7231 52.3009 12.7231C49.7782 12.7231 47.7477 14.7615 47.7477 17.2939C47.7477 17.9528 47.8912 18.5498 48.1374 19.1263C47.0913 23.5324 42.8868 26.2089 37.7592 27.8561C32.4676 26.2501 28.0579 23.553 27.0119 19.1057C27.2375 18.5498 27.3811 17.9528 27.3811 17.3145C27.3811 14.8026 25.3506 12.7437 22.8278 12.7437C20.3051 12.7437 18.2746 14.782 18.2746 17.3145C18.2746 19.8469 20.3051 21.8853 22.8278 21.8853C23.7918 21.8853 24.6942 21.5764 25.4326 21.0411C26.8273 24.6442 30.0679 27.1354 34.1699 28.8237C30.9704 29.5238 27.6477 29.8944 24.6532 30.1003C22.7868 29.7503 20.8383 29.5855 18.8078 29.5855C15.2185 29.565 12.019 32.2003 11.7113 35.7828C11.3626 39.7977 14.5212 43.1743 18.4592 43.1743C20.5717 43.1743 22.4176 42.186 23.6687 40.6624L23.6893 40.7036C23.6893 40.7036 27.5862 34.4651 31.8318 40.333C33.2265 42.0831 33.1239 44.5949 31.5446 46.2009C30.8063 46.9421 30.1089 47.6421 29.4731 48.2598C28.6732 49.0216 27.6272 49.4539 26.5196 49.4539H24.3661H24.1405H6.46071C2.91245 49.4539 0 52.3776 0 55.9395C0 59.522 2.89194 62.425 6.46071 62.425H24.2635C26.7658 62.425 28.8168 64.4633 28.8168 66.9958V67.0164C28.7963 74.4902 15.2801 70.9077 14.1315 70.9283H14.0495C10.5012 71.0312 7.32214 73.4607 6.62479 76.9608C5.6403 81.8404 9.35263 86.1435 14.0495 86.1435H14.193C15.9774 86.1847 29.2885 86.7612 32.324 91.9908C31.319 92.2791 30.5602 93.1644 30.5602 94.2556C30.5602 95.5733 31.6267 96.6439 32.9393 96.6439C33.0214 96.6439 33.1034 96.6028 33.1855 96.6028C33.7187 98.5587 35.4826 99.9999 37.5746 99.9999C39.6872 99.9999 41.451 98.5587 41.9638 96.6028C42.0664 96.6234 42.1484 96.6645 42.2304 96.6645C43.5431 96.6645 44.6096 95.5939 44.6096 94.2762C44.6096 93.1026 43.7482 92.1761 42.6406 91.9702C45.348 87.1318 56.7927 86.3083 60.0538 86.1847L60.7306 86.1641C64.9147 86.1641 68.2989 82.767 68.2989 78.5668C68.2989 74.3666 64.9147 70.9695 60.7306 70.9695H60.546C58.8642 70.9077 46.2914 74.3666 46.3119 67.0164C46.3119 64.5045 48.404 62.4662 50.9062 62.4662H51.4395H68.2989H68.6681C72.4419 62.4662 75.4774 59.2131 75.1082 55.3424C74.8006 51.904 71.7856 49.4333 68.4014 49.4333ZM35.1749 49.4333C35.9133 48.7127 36.6927 47.8892 37.4926 47.0038C38.2925 47.8686 39.0719 48.7127 39.8102 49.4333H35.1749ZM41.1639 34.8151C40.3435 35.6387 39.5641 36.8123 39.0308 37.5535C38.5591 38.2123 38.0464 38.8712 37.5131 39.53C36.9798 38.8712 36.4876 37.9653 36.0159 37.3064C35.3595 36.3799 35.339 36.2976 33.8623 34.8151C32.5086 33.4563 31.0524 32.468 29.4731 31.6856C32.1805 31.3356 34.9904 30.8003 37.6157 30.0179C40.2204 30.7591 43.0098 31.2738 45.7787 31.6033C44.1174 32.3856 42.5791 33.4151 41.1639 34.8151Z" fill="url(#paint1_linear_10009_15442)"/>
<defs>
<linearGradient id="paint0_linear_10009_15442" x1="37.5506" y1="100.2" x2="37.5506" y2="0.525428" gradientUnits="userSpaceOnUse">
<stop stop-color="#95C11F"/>
<stop offset="0.1196" stop-color="#77B82A"/>
<stop offset="0.2535" stop-color="#5BB030"/>
<stop offset="0.3863" stop-color="#46AC34"/>
<stop offset="0.5157" stop-color="#3EAB35"/>
<stop offset="1" stop-color="#3AAA35"/>
</linearGradient>
<linearGradient id="paint1_linear_10009_15442" x1="37.5515" y1="100.199" x2="37.5515" y2="0.524571" gradientUnits="userSpaceOnUse">
<stop stop-color="#95C11F"/>
<stop offset="0.1196" stop-color="#77B82A"/>
<stop offset="0.2535" stop-color="#5BB030"/>
<stop offset="0.3863" stop-color="#46AC34"/>
<stop offset="0.5157" stop-color="#3EAB35"/>
<stop offset="1" stop-color="#3AAA35"/>
</linearGradient>
</defs>
</svg>
